<svg width="230" height="57" viewBox="0 0 230 57" fill="none" xmlns="http://www.w3.org/2000/svg">
<path d="M19.125 9.875V44H10.8984V9.875H19.125ZM29.3906 9.875V16.2266H0.867188V9.875H29.3906ZM53.9672 37.6719V44H35.7797V37.6719H53.9672ZM38.7094 9.875V44H30.4828V9.875H38.7094ZM51.6234 23.4219V29.5391H35.7797V23.4219H51.6234ZM54.0375 9.875V16.2266H35.7797V9.875H54.0375ZM74.3484 32.4453H82.5516C82.4422 34.8203 81.8016 36.9141 80.6297 38.7266C79.4578 40.5391 77.8328 41.9531 75.7547 42.9688C73.6922 43.9688 71.2547 44.4688 68.4422 44.4688C66.1609 44.4688 64.1219 44.0859 62.325 43.3203C60.5438 42.5547 59.0281 41.4531 57.7781 40.0156C56.5438 38.5781 55.5984 36.8359 54.9422 34.7891C54.3016 32.7422 53.9813 30.4375 53.9813 27.875V26.0234C53.9813 23.4609 54.3172 21.1562 54.9891 19.1094C55.6766 17.0469 56.6453 15.2969 57.8953 13.8594C59.1609 12.4062 60.6766 11.2969 62.4422 10.5312C64.2078 9.76562 66.1688 9.38281 68.325 9.38281C71.2938 9.38281 73.8016 9.91406 75.8484 10.9766C77.8953 12.0391 79.4813 13.5 80.6063 15.3594C81.7313 17.2031 82.3953 19.3047 82.5984 21.6641H74.3953C74.3641 20.3828 74.1453 19.3125 73.7391 18.4531C73.3328 17.5781 72.6922 16.9219 71.8172 16.4844C70.9422 16.0469 69.7781 15.8281 68.325 15.8281C67.3094 15.8281 66.4266 16.0156 65.6766 16.3906C64.9266 16.7656 64.3016 17.3594 63.8016 18.1719C63.3016 18.9844 62.9266 20.0391 62.6766 21.3359C62.4422 22.6172 62.325 24.1641 62.325 25.9766V27.875C62.325 29.6875 62.4344 31.2344 62.6531 32.5156C62.8719 33.7969 63.2234 34.8438 63.7078 35.6562C64.1922 36.4688 64.8172 37.0703 65.5828 37.4609C66.3641 37.8359 67.3172 38.0234 68.4422 38.0234C69.6922 38.0234 70.7469 37.8281 71.6063 37.4375C72.4656 37.0312 73.1297 36.4219 73.5984 35.6094C74.0672 34.7812 74.3172 33.7266 74.3484 32.4453ZM112.542 9.875V44H104.339L92.2688 22.7656V44H84.0422V9.875H92.2688L104.339 31.1094V9.875H112.542ZM144.22 26.2578V27.6406C144.22 30.25 143.853 32.5938 143.119 34.6719C142.4 36.7344 141.377 38.5 140.048 39.9688C138.72 41.4219 137.15 42.5391 135.338 43.3203C133.525 44.0859 131.525 44.4688 129.338 44.4688C127.134 44.4688 125.119 44.0859 123.291 43.3203C121.478 42.5391 119.9 41.4219 118.556 39.9688C117.228 38.5 116.197 36.7344 115.463 34.6719C114.744 32.5938 114.384 30.25 114.384 27.6406V26.2578C114.384 23.6484 114.744 21.3047 115.463 19.2266C116.197 17.1484 117.22 15.3828 118.533 13.9297C119.861 12.4609 121.431 11.3438 123.244 10.5781C125.072 9.79688 127.088 9.40625 129.291 9.40625C131.478 9.40625 133.478 9.79688 135.291 10.5781C137.119 11.3438 138.697 12.4609 140.025 13.9297C141.353 15.3828 142.384 17.1484 143.119 19.2266C143.853 21.3047 144.22 23.6484 144.22 26.2578ZM135.877 27.6406V26.2109C135.877 24.5234 135.728 23.0391 135.431 21.7578C135.15 20.4609 134.728 19.375 134.166 18.5C133.603 17.625 132.908 16.9688 132.08 16.5312C131.267 16.0781 130.338 15.8516 129.291 15.8516C128.197 15.8516 127.244 16.0781 126.431 16.5312C125.619 16.9688 124.939 17.625 124.392 18.5C123.845 19.375 123.431 20.4609 123.15 21.7578C122.884 23.0391 122.752 24.5234 122.752 26.2109V27.6406C122.752 29.3125 122.884 30.7969 123.15 32.0938C123.431 33.375 123.845 34.4609 124.392 35.3516C124.955 36.2422 125.642 36.9141 126.455 37.3672C127.283 37.8203 128.244 38.0469 129.338 38.0469C130.384 38.0469 131.314 37.8203 132.127 37.3672C132.939 36.9141 133.619 36.2422 134.166 35.3516C134.728 34.4609 135.15 33.375 135.431 32.0938C135.728 30.7969 135.877 29.3125 135.877 27.6406Z" fill="#D40302"/>
<path d="M160.008 29.4922H151.219L151.172 24.1016H158.297C159.578 24.1016 160.602 23.9609 161.367 23.6797C162.133 23.3828 162.688 22.9531 163.031 22.3906C163.391 21.8281 163.57 21.125 163.57 20.2812C163.57 19.3125 163.391 18.5312 163.031 17.9375C162.672 17.3438 162.102 16.9141 161.32 16.6484C160.555 16.3672 159.562 16.2266 158.344 16.2266H154.312V44H146.086V9.875H158.344C160.453 9.875 162.336 10.0703 163.992 10.4609C165.648 10.8359 167.055 11.4141 168.211 12.1953C169.383 12.9766 170.273 13.9609 170.883 15.1484C171.492 16.3203 171.797 17.7031 171.797 19.2969C171.797 20.6875 171.5 21.9922 170.906 23.2109C170.312 24.4297 169.32 25.4219 167.93 26.1875C166.555 26.9375 164.672 27.3281 162.281 27.3594L160.008 29.4922ZM159.68 44H149.227L152.039 37.6719H159.68C160.805 37.6719 161.703 37.5 162.375 37.1562C163.062 36.7969 163.555 36.3281 163.852 35.75C164.164 35.1562 164.32 34.5 164.32 33.7812C164.32 32.9062 164.172 32.1484 163.875 31.5078C163.594 30.8672 163.141 30.375 162.516 30.0312C161.891 29.6719 161.055 29.4922 160.008 29.4922H153.094L153.141 24.1016H161.414L163.336 26.2578C165.617 26.1641 167.422 26.4844 168.75 27.2188C170.094 27.9531 171.055 28.9219 171.633 30.125C172.211 31.3281 172.5 32.5859 172.5 33.8984C172.5 36.1328 172.016 38 171.047 39.5C170.094 41 168.664 42.125 166.758 42.875C164.852 43.625 162.492 44 159.68 44ZM189.131 17.0469L180.811 44H171.975L184.514 9.875H190.116L189.131 17.0469ZM196.022 44L187.678 17.0469L186.6 9.875H192.272L204.881 44H196.022ZM195.694 31.2734V37.625H178.186V31.2734H195.694ZM207.661 9.875L213.942 24.6875L220.247 9.875H229.106L218.137 31.7422V44H209.77V31.7422L198.778 9.875H207.661Z" fill="#373737"/>
<path d="M86.7632 52.5498V54H82.8101V52.5498H86.7632ZM83.4814 46.1797V54H81.5962V46.1797H83.4814ZM90.4295 47.8232L88.5228 54H86.4979L89.3714 46.1797H90.6551L90.4295 47.8232ZM92.0086 54L90.0965 47.8232L89.8494 46.1797H91.1492L94.0389 54H92.0086ZM91.9334 51.0835V52.5391H87.9212V51.0835H91.9334ZM99.7172 46.1797V54H97.8319V46.1797H99.7172ZM102.07 46.1797V47.6353H95.5331V46.1797H102.07ZM107.702 52.5498V54H103.534V52.5498H107.702ZM104.205 46.1797V54H102.32V46.1797H104.205ZM107.165 49.2842V50.686H103.534V49.2842H107.165ZM107.718 46.1797V47.6353H103.534V46.1797H107.718ZM112.373 51.3521H114.252C114.227 51.8963 114.081 52.3761 113.812 52.7915C113.543 53.2069 113.171 53.5309 112.695 53.7637C112.222 53.9928 111.664 54.1074 111.019 54.1074C110.496 54.1074 110.029 54.0197 109.617 53.8442C109.209 53.6688 108.862 53.4163 108.575 53.0869C108.292 52.7575 108.076 52.3582 107.925 51.8892C107.778 51.4201 107.705 50.8919 107.705 50.3047V49.8804C107.705 49.2931 107.782 48.765 107.936 48.2959C108.094 47.8232 108.316 47.4222 108.602 47.0928C108.892 46.7598 109.239 46.5055 109.644 46.3301C110.049 46.1546 110.498 46.0669 110.992 46.0669C111.673 46.0669 112.247 46.1886 112.716 46.4321C113.185 46.6756 113.549 47.0104 113.807 47.4365C114.064 47.859 114.217 48.3407 114.263 48.8813H112.383C112.376 48.5877 112.326 48.3424 112.233 48.1455C112.14 47.945 111.993 47.7946 111.792 47.6943C111.592 47.5941 111.325 47.5439 110.992 47.5439C110.759 47.5439 110.557 47.5869 110.385 47.6729C110.213 47.7588 110.07 47.8949 109.956 48.0811C109.841 48.2673 109.755 48.509 109.698 48.8062C109.644 49.0998 109.617 49.4543 109.617 49.8696V50.3047C109.617 50.7201 109.642 51.0745 109.692 51.3682C109.743 51.6618 109.823 51.9017 109.934 52.0879C110.045 52.2741 110.188 52.4119 110.364 52.5015C110.543 52.5874 110.761 52.6304 111.019 52.6304C111.306 52.6304 111.547 52.5856 111.744 52.4961C111.941 52.403 112.093 52.2633 112.201 52.0771C112.308 51.8874 112.365 51.6457 112.373 51.3521ZM121.125 46.1797V54H119.245L116.479 49.1338V54H114.594V46.1797H116.479L119.245 51.0459V46.1797H121.125ZM128.385 49.9341V50.251C128.385 50.849 128.301 51.3861 128.132 51.8623C127.968 52.335 127.733 52.7396 127.429 53.0762C127.124 53.4092 126.765 53.6652 126.349 53.8442C125.934 54.0197 125.476 54.1074 124.974 54.1074C124.469 54.1074 124.007 54.0197 123.588 53.8442C123.173 53.6652 122.811 53.4092 122.504 53.0762C122.199 52.7396 121.963 52.335 121.795 51.8623C121.63 51.3861 121.547 50.849 121.547 50.251V49.9341C121.547 49.3361 121.63 48.799 121.795 48.3228C121.963 47.8465 122.197 47.4419 122.498 47.1089C122.803 46.7723 123.162 46.5163 123.578 46.3408C123.997 46.1618 124.459 46.0723 124.963 46.0723C125.465 46.0723 125.923 46.1618 126.338 46.3408C126.757 46.5163 127.119 46.7723 127.423 47.1089C127.728 47.4419 127.964 47.8465 128.132 48.3228C128.301 48.799 128.385 49.3361 128.385 49.9341ZM126.473 50.251V49.9233C126.473 49.5366 126.439 49.1965 126.371 48.9028C126.306 48.6056 126.21 48.3568 126.081 48.1562C125.952 47.9557 125.792 47.8053 125.603 47.7051C125.416 47.6012 125.203 47.5493 124.963 47.5493C124.713 47.5493 124.494 47.6012 124.308 47.7051C124.122 47.8053 123.966 47.9557 123.841 48.1562C123.716 48.3568 123.621 48.6056 123.556 48.9028C123.495 49.1965 123.465 49.5366 123.465 49.9233V50.251C123.465 50.6341 123.495 50.9743 123.556 51.2715C123.621 51.5651 123.716 51.814 123.841 52.0181C123.97 52.2222 124.127 52.3761 124.314 52.48C124.503 52.5838 124.724 52.6357 124.974 52.6357C125.214 52.6357 125.427 52.5838 125.613 52.48C125.8 52.3761 125.955 52.2222 126.081 52.0181C126.21 51.814 126.306 51.5651 126.371 51.2715C126.439 50.9743 126.473 50.6341 126.473 50.251ZM133.979 52.5498V54H130.026V52.5498H133.979ZM130.698 46.1797V54H128.812V46.1797H130.698ZM140.498 49.9341V50.251C140.498 50.849 140.414 51.3861 140.245 51.8623C140.081 52.335 139.846 52.7396 139.542 53.0762C139.237 53.4092 138.877 53.6652 138.462 53.8442C138.047 54.0197 137.588 54.1074 137.087 54.1074C136.582 54.1074 136.12 54.0197 135.701 53.8442C135.286 53.6652 134.924 53.4092 134.616 53.0762C134.312 52.7396 134.076 52.335 133.907 51.8623C133.743 51.3861 133.66 50.849 133.66 50.251V49.9341C133.66 49.3361 133.743 48.799 133.907 48.3228C134.076 47.8465 134.31 47.4419 134.611 47.1089C134.915 46.7723 135.275 46.5163 135.691 46.3408C136.11 46.1618 136.571 46.0723 137.076 46.0723C137.578 46.0723 138.036 46.1618 138.451 46.3408C138.87 46.5163 139.232 46.7723 139.536 47.1089C139.841 47.4419 140.077 47.8465 140.245 48.3228C140.414 48.799 140.498 49.3361 140.498 49.9341ZM138.586 50.251V49.9233C138.586 49.5366 138.552 49.1965 138.484 48.9028C138.419 48.6056 138.322 48.3568 138.194 48.1562C138.065 47.9557 137.905 47.8053 137.716 47.7051C137.529 47.6012 137.316 47.5493 137.076 47.5493C136.826 47.5493 136.607 47.6012 136.421 47.7051C136.235 47.8053 136.079 47.9557 135.954 48.1562C135.828 48.3568 135.734 48.6056 135.669 48.9028C135.608 49.1965 135.578 49.5366 135.578 49.9233V50.251C135.578 50.6341 135.608 50.9743 135.669 51.2715C135.734 51.5651 135.828 51.814 135.954 52.0181C136.083 52.2222 136.24 52.3761 136.426 52.48C136.616 52.5838 136.836 52.6357 137.087 52.6357C137.327 52.6357 137.54 52.5838 137.726 52.48C137.912 52.3761 138.068 52.2222 138.194 52.0181C138.322 51.814 138.419 51.5651 138.484 51.2715C138.552 50.9743 138.586 50.6341 138.586 50.251ZM147.322 49.8213V53.0332C147.19 53.18 146.986 53.3376 146.71 53.5059C146.438 53.6706 146.094 53.812 145.679 53.9302C145.263 54.0483 144.775 54.1074 144.212 54.1074C143.693 54.1074 143.222 54.0251 142.8 53.8604C142.377 53.6921 142.014 53.4468 141.709 53.1245C141.409 52.7987 141.176 52.4012 141.011 51.9321C140.85 51.4595 140.77 50.9188 140.77 50.3101V49.875C140.77 49.2663 140.852 48.7256 141.017 48.2529C141.181 47.7803 141.412 47.3828 141.709 47.0605C142.01 46.7347 142.363 46.4876 142.768 46.3193C143.176 46.151 143.623 46.0669 144.11 46.0669C144.83 46.0669 145.416 46.1815 145.867 46.4106C146.318 46.6362 146.66 46.9495 146.893 47.3506C147.125 47.748 147.267 48.2082 147.317 48.731H145.507C145.471 48.4731 145.403 48.2547 145.303 48.0757C145.206 47.8931 145.066 47.7552 144.884 47.6621C144.701 47.5654 144.465 47.5171 144.175 47.5171C143.949 47.5171 143.743 47.5654 143.557 47.6621C143.375 47.7588 143.219 47.9056 143.09 48.1025C142.961 48.2959 142.861 48.5394 142.789 48.833C142.721 49.1266 142.687 49.4704 142.687 49.8643V50.3101C142.687 50.7004 142.719 51.0423 142.784 51.3359C142.852 51.6296 142.952 51.8748 143.084 52.0718C143.221 52.2651 143.392 52.4119 143.6 52.5122C143.811 52.6089 144.06 52.6572 144.347 52.6572C144.547 52.6572 144.719 52.6411 144.862 52.6089C145.006 52.5731 145.124 52.5301 145.217 52.48C145.313 52.4263 145.387 52.3761 145.437 52.3296V51.1157H144.126V49.8213H147.322ZM149.877 46.1797V54H147.997V46.1797H149.877ZM154.064 47.8232L152.157 54H150.132L153.006 46.1797H154.29L154.064 47.8232ZM155.643 54L153.731 47.8232L153.484 46.1797H154.784L157.673 54H155.643ZM155.568 51.0835V52.5391H151.556V51.0835H155.568ZM163.201 47.8232L161.295 54H159.27L162.143 46.1797H163.427L163.201 47.8232ZM164.78 54L162.868 47.8232L162.621 46.1797H163.921L166.811 54H164.78ZM164.705 51.0835V52.5391H160.693V51.0835H164.705ZM172.489 46.1797V54H170.604V46.1797H172.489ZM174.842 46.1797V47.6353H168.305V46.1797H174.842ZM179.335 46.1797H181.22V51.2876C181.22 51.8963 181.093 52.4119 180.839 52.8345C180.585 53.2534 180.228 53.5703 179.77 53.7852C179.312 54 178.773 54.1074 178.153 54.1074C177.541 54.1074 177.002 54 176.537 53.7852C176.075 53.5703 175.713 53.2534 175.452 52.8345C175.194 52.4119 175.065 51.8963 175.065 51.2876V46.1797H176.956V51.2876C176.956 51.6099 177.002 51.873 177.095 52.0771C177.188 52.2777 177.324 52.4245 177.504 52.5176C177.683 52.6107 177.899 52.6572 178.153 52.6572C178.411 52.6572 178.628 52.6107 178.803 52.5176C178.979 52.4245 179.111 52.2777 179.201 52.0771C179.29 51.873 179.335 51.6099 179.335 51.2876V46.1797ZM187.361 47.8232L185.454 54H183.429L186.302 46.1797H187.586L187.361 47.8232ZM188.94 54L187.028 47.8232L186.78 46.1797H188.08L190.97 54H188.94ZM188.864 51.0835V52.5391H184.852V51.0835H188.864ZM196.162 52.5498V54H192.208V52.5498H196.162ZM192.88 46.1797V54H190.995V46.1797H192.88ZM200.51 51.3521H202.39C202.365 51.8963 202.218 52.3761 201.95 52.7915C201.681 53.2069 201.309 53.5309 200.832 53.7637C200.36 53.9928 199.801 54.1074 199.157 54.1074C198.634 54.1074 198.166 54.0197 197.755 53.8442C197.346 53.6688 196.999 53.4163 196.713 53.0869C196.43 52.7575 196.213 52.3582 196.063 51.8892C195.916 51.4201 195.843 50.8919 195.843 50.3047V49.8804C195.843 49.2931 195.92 48.765 196.074 48.2959C196.231 47.8232 196.453 47.4222 196.74 47.0928C197.03 46.7598 197.377 46.5055 197.782 46.3301C198.186 46.1546 198.636 46.0669 199.13 46.0669C199.81 46.0669 200.385 46.1886 200.854 46.4321C201.323 46.6756 201.686 47.0104 201.944 47.4365C202.202 47.859 202.354 48.3407 202.401 48.8813H200.521C200.514 48.5877 200.464 48.3424 200.37 48.1455C200.277 47.945 200.13 47.7946 199.93 47.6943C199.729 47.5941 199.463 47.5439 199.13 47.5439C198.897 47.5439 198.695 47.5869 198.523 47.6729C198.351 47.7588 198.208 47.8949 198.093 48.0811C197.978 48.2673 197.893 48.509 197.835 48.8062C197.782 49.0998 197.755 49.4543 197.755 49.8696V50.3047C197.755 50.7201 197.78 51.0745 197.83 51.3682C197.88 51.6618 197.961 51.9017 198.072 52.0879C198.183 52.2741 198.326 52.4119 198.501 52.5015C198.68 52.5874 198.899 52.6304 199.157 52.6304C199.443 52.6304 199.685 52.5856 199.882 52.4961C200.079 52.403 200.231 52.2633 200.338 52.0771C200.446 51.8874 200.503 51.6457 200.51 51.3521ZM206.046 47.8232L204.139 54H202.114L204.987 46.1797H206.271L206.046 47.8232ZM207.625 54L205.713 47.8232L205.465 46.1797H206.765L209.655 54H207.625ZM207.549 51.0835V52.5391H203.537V51.0835H207.549ZM216.211 46.1797V54H214.331L211.565 49.1338V54H209.68V46.1797H211.565L214.331 51.0459V46.1797H216.211ZM221.3 51.3521H223.18C223.155 51.8963 223.008 52.3761 222.74 52.7915C222.471 53.2069 222.099 53.5309 221.623 53.7637C221.15 53.9928 220.592 54.1074 219.947 54.1074C219.424 54.1074 218.957 54.0197 218.545 53.8442C218.137 53.6688 217.79 53.4163 217.503 53.0869C217.22 52.7575 217.004 52.3582 216.853 51.8892C216.706 51.4201 216.633 50.8919 216.633 50.3047V49.8804C216.633 49.2931 216.71 48.765 216.864 48.2959C217.022 47.8232 217.244 47.4222 217.53 47.0928C217.82 46.7598 218.167 46.5055 218.572 46.3301C218.977 46.1546 219.426 46.0669 219.92 46.0669C220.6 46.0669 221.175 46.1886 221.644 46.4321C222.113 46.6756 222.477 47.0104 222.735 47.4365C222.992 47.859 223.145 48.3407 223.191 48.8813H221.311C221.304 48.5877 221.254 48.3424 221.161 48.1455C221.068 47.945 220.921 47.7946 220.72 47.6943C220.52 47.5941 220.253 47.5439 219.92 47.5439C219.687 47.5439 219.485 47.5869 219.313 47.6729C219.141 47.7588 218.998 47.8949 218.883 48.0811C218.769 48.2673 218.683 48.509 218.626 48.8062C218.572 49.0998 218.545 49.4543 218.545 49.8696V50.3047C218.545 50.7201 218.57 51.0745 218.62 51.3682C218.67 51.6618 218.751 51.9017 218.862 52.0879C218.973 52.2741 219.116 52.4119 219.292 52.5015C219.471 52.5874 219.689 52.6304 219.947 52.6304C220.233 52.6304 220.475 52.5856 220.672 52.4961C220.869 52.403 221.021 52.2633 221.129 52.0771C221.236 51.8874 221.293 51.6457 221.3 51.3521ZM228.904 52.5498V54H224.736V52.5498H228.904ZM225.407 46.1797V54H223.522V46.1797H225.407ZM228.367 49.2842V50.686H224.736V49.2842H228.367ZM228.92 46.1797V47.6353H224.736V46.1797H228.92Z" fill="#817546"/>
</svg>
