<svg width="230" height="36" viewBox="0 0 230 36" fill="none" xmlns="http://www.w3.org/2000/svg">
<mask id="path-1-outside-1_7_2" maskUnits="userSpaceOnUse" x="-1" y="-1" width="232" height="38" fill="black">
<rect fill="white" x="-1" y="-1" width="232" height="38"/>
<path d="M19.125 0.875V35H10.8984V0.875H19.125ZM29.3906 0.875V7.22656H0.867188V0.875H29.3906ZM53.9672 28.6719V35H35.7797V28.6719H53.9672ZM38.7094 0.875V35H30.4828V0.875H38.7094ZM51.6234 14.4219V20.5391H35.7797V14.4219H51.6234ZM54.0375 0.875V7.22656H35.7797V0.875H54.0375ZM74.3484 23.4453H82.5516C82.4422 25.8203 81.8016 27.9141 80.6297 29.7266C79.4578 31.5391 77.8328 32.9531 75.7547 33.9688C73.6922 34.9688 71.2547 35.4688 68.4422 35.4688C66.1609 35.4688 64.1219 35.0859 62.325 34.3203C60.5438 33.5547 59.0281 32.4531 57.7781 31.0156C56.5438 29.5781 55.5984 27.8359 54.9422 25.7891C54.3016 23.7422 53.9813 21.4375 53.9813 18.875V17.0234C53.9813 14.4609 54.3172 12.1562 54.9891 10.1094C55.6766 8.04688 56.6453 6.29687 57.8953 4.85938C59.1609 3.40625 60.6766 2.29688 62.4422 1.53125C64.2078 0.765625 66.1688 0.382812 68.325 0.382812C71.2938 0.382812 73.8016 0.914063 75.8484 1.97656C77.8953 3.03906 79.4813 4.5 80.6063 6.35938C81.7313 8.20312 82.3953 10.3047 82.5984 12.6641H74.3953C74.3641 11.3828 74.1453 10.3125 73.7391 9.45312C73.3328 8.57812 72.6922 7.92188 71.8172 7.48438C70.9422 7.04688 69.7781 6.82812 68.325 6.82812C67.3094 6.82812 66.4266 7.01562 65.6766 7.39062C64.9266 7.76562 64.3016 8.35938 63.8016 9.17188C63.3016 9.98438 62.9266 11.0391 62.6766 12.3359C62.4422 13.6172 62.325 15.1641 62.325 16.9766V18.875C62.325 20.6875 62.4344 22.2344 62.6531 23.5156C62.8719 24.7969 63.2234 25.8438 63.7078 26.6562C64.1922 27.4688 64.8172 28.0703 65.5828 28.4609C66.3641 28.8359 67.3172 29.0234 68.4422 29.0234C69.6922 29.0234 70.7469 28.8281 71.6063 28.4375C72.4656 28.0312 73.1297 27.4219 73.5984 26.6094C74.0672 25.7812 74.3172 24.7266 74.3484 23.4453ZM112.542 0.875V35H104.339L92.2688 13.7656V35H84.0422V0.875H92.2688L104.339 22.1094V0.875H112.542ZM144.22 17.2578V18.6406C144.22 21.25 143.853 23.5938 143.119 25.6719C142.4 27.7344 141.377 29.5 140.048 30.9688C138.72 32.4219 137.15 33.5391 135.338 34.3203C133.525 35.0859 131.525 35.4688 129.338 35.4688C127.134 35.4688 125.119 35.0859 123.291 34.3203C121.478 33.5391 119.9 32.4219 118.556 30.9688C117.228 29.5 116.197 27.7344 115.463 25.6719C114.744 23.5938 114.384 21.25 114.384 18.6406V17.2578C114.384 14.6484 114.744 12.3047 115.463 10.2266C116.197 8.14844 117.22 6.38281 118.533 4.92969C119.861 3.46094 121.431 2.34375 123.244 1.57812C125.072 0.796875 127.088 0.40625 129.291 0.40625C131.478 0.40625 133.478 0.796875 135.291 1.57812C137.119 2.34375 138.697 3.46094 140.025 4.92969C141.353 6.38281 142.384 8.14844 143.119 10.2266C143.853 12.3047 144.22 14.6484 144.22 17.2578ZM135.877 18.6406V17.2109C135.877 15.5234 135.728 14.0391 135.431 12.7578C135.15 11.4609 134.728 10.375 134.166 9.5C133.603 8.625 132.908 7.96875 132.08 7.53125C131.267 7.07812 130.338 6.85156 129.291 6.85156C128.197 6.85156 127.244 7.07812 126.431 7.53125C125.619 7.96875 124.939 8.625 124.392 9.5C123.845 10.375 123.431 11.4609 123.15 12.7578C122.884 14.0391 122.752 15.5234 122.752 17.2109V18.6406C122.752 20.3125 122.884 21.7969 123.15 23.0938C123.431 24.375 123.845 25.4609 124.392 26.3516C124.955 27.2422 125.642 27.9141 126.455 28.3672C127.283 28.8203 128.244 29.0469 129.338 29.0469C130.384 29.0469 131.314 28.8203 132.127 28.3672C132.939 27.9141 133.619 27.2422 134.166 26.3516C134.728 25.4609 135.15 24.375 135.431 23.0938C135.728 21.7969 135.877 20.3125 135.877 18.6406Z"/>
<path d="M160.008 20.4922H151.219L151.172 15.1016H158.297C159.578 15.1016 160.602 14.9609 161.367 14.6797C162.133 14.3828 162.688 13.9531 163.031 13.3906C163.391 12.8281 163.57 12.125 163.57 11.2812C163.57 10.3125 163.391 9.53125 163.031 8.9375C162.672 8.34375 162.102 7.91406 161.32 7.64844C160.555 7.36719 159.562 7.22656 158.344 7.22656H154.312V35H146.086V0.875H158.344C160.453 0.875 162.336 1.07031 163.992 1.46094C165.648 1.83594 167.055 2.41406 168.211 3.19531C169.383 3.97656 170.273 4.96094 170.883 6.14844C171.492 7.32031 171.797 8.70312 171.797 10.2969C171.797 11.6875 171.5 12.9922 170.906 14.2109C170.312 15.4297 169.32 16.4219 167.93 17.1875C166.555 17.9375 164.672 18.3281 162.281 18.3594L160.008 20.4922ZM159.68 35H149.227L152.039 28.6719H159.68C160.805 28.6719 161.703 28.5 162.375 28.1562C163.062 27.7969 163.555 27.3281 163.852 26.75C164.164 26.1562 164.32 25.5 164.32 24.7812C164.32 23.9062 164.172 23.1484 163.875 22.5078C163.594 21.8672 163.141 21.375 162.516 21.0312C161.891 20.6719 161.055 20.4922 160.008 20.4922H153.094L153.141 15.1016H161.414L163.336 17.2578C165.617 17.1641 167.422 17.4844 168.75 18.2188C170.094 18.9531 171.055 19.9219 171.633 21.125C172.211 22.3281 172.5 23.5859 172.5 24.8984C172.5 27.1328 172.016 29 171.047 30.5C170.094 32 168.664 33.125 166.758 33.875C164.852 34.625 162.492 35 159.68 35ZM189.131 8.04688L180.811 35H171.975L184.514 0.875H190.116L189.131 8.04688ZM196.022 35L187.678 8.04688L186.6 0.875H192.272L204.881 35H196.022ZM195.694 22.2734V28.625H178.186V22.2734H195.694ZM207.661 0.875L213.942 15.6875L220.247 0.875H229.106L218.137 22.7422V35H209.77V22.7422L198.778 0.875H207.661Z"/>
</mask>
<path d="M19.125 0.875V35H10.8984V0.875H19.125ZM29.3906 0.875V7.22656H0.867188V0.875H29.3906ZM53.9672 28.6719V35H35.7797V28.6719H53.9672ZM38.7094 0.875V35H30.4828V0.875H38.7094ZM51.6234 14.4219V20.5391H35.7797V14.4219H51.6234ZM54.0375 0.875V7.22656H35.7797V0.875H54.0375ZM74.3484 23.4453H82.5516C82.4422 25.8203 81.8016 27.9141 80.6297 29.7266C79.4578 31.5391 77.8328 32.9531 75.7547 33.9688C73.6922 34.9688 71.2547 35.4688 68.4422 35.4688C66.1609 35.4688 64.1219 35.0859 62.325 34.3203C60.5438 33.5547 59.0281 32.4531 57.7781 31.0156C56.5438 29.5781 55.5984 27.8359 54.9422 25.7891C54.3016 23.7422 53.9813 21.4375 53.9813 18.875V17.0234C53.9813 14.4609 54.3172 12.1562 54.9891 10.1094C55.6766 8.04688 56.6453 6.29687 57.8953 4.85938C59.1609 3.40625 60.6766 2.29688 62.4422 1.53125C64.2078 0.765625 66.1688 0.382812 68.325 0.382812C71.2938 0.382812 73.8016 0.914063 75.8484 1.97656C77.8953 3.03906 79.4813 4.5 80.6063 6.35938C81.7313 8.20312 82.3953 10.3047 82.5984 12.6641H74.3953C74.3641 11.3828 74.1453 10.3125 73.7391 9.45312C73.3328 8.57812 72.6922 7.92188 71.8172 7.48438C70.9422 7.04688 69.7781 6.82812 68.325 6.82812C67.3094 6.82812 66.4266 7.01562 65.6766 7.39062C64.9266 7.76562 64.3016 8.35938 63.8016 9.17188C63.3016 9.98438 62.9266 11.0391 62.6766 12.3359C62.4422 13.6172 62.325 15.1641 62.325 16.9766V18.875C62.325 20.6875 62.4344 22.2344 62.6531 23.5156C62.8719 24.7969 63.2234 25.8438 63.7078 26.6562C64.1922 27.4688 64.8172 28.0703 65.5828 28.4609C66.3641 28.8359 67.3172 29.0234 68.4422 29.0234C69.6922 29.0234 70.7469 28.8281 71.6063 28.4375C72.4656 28.0312 73.1297 27.4219 73.5984 26.6094C74.0672 25.7812 74.3172 24.7266 74.3484 23.4453ZM112.542 0.875V35H104.339L92.2688 13.7656V35H84.0422V0.875H92.2688L104.339 22.1094V0.875H112.542ZM144.22 17.2578V18.6406C144.22 21.25 143.853 23.5938 143.119 25.6719C142.4 27.7344 141.377 29.5 140.048 30.9688C138.72 32.4219 137.15 33.5391 135.338 34.3203C133.525 35.0859 131.525 35.4688 129.338 35.4688C127.134 35.4688 125.119 35.0859 123.291 34.3203C121.478 33.5391 119.9 32.4219 118.556 30.9688C117.228 29.5 116.197 27.7344 115.463 25.6719C114.744 23.5938 114.384 21.25 114.384 18.6406V17.2578C114.384 14.6484 114.744 12.3047 115.463 10.2266C116.197 8.14844 117.22 6.38281 118.533 4.92969C119.861 3.46094 121.431 2.34375 123.244 1.57812C125.072 0.796875 127.088 0.40625 129.291 0.40625C131.478 0.40625 133.478 0.796875 135.291 1.57812C137.119 2.34375 138.697 3.46094 140.025 4.92969C141.353 6.38281 142.384 8.14844 143.119 10.2266C143.853 12.3047 144.22 14.6484 144.22 17.2578ZM135.877 18.6406V17.2109C135.877 15.5234 135.728 14.0391 135.431 12.7578C135.15 11.4609 134.728 10.375 134.166 9.5C133.603 8.625 132.908 7.96875 132.08 7.53125C131.267 7.07812 130.338 6.85156 129.291 6.85156C128.197 6.85156 127.244 7.07812 126.431 7.53125C125.619 7.96875 124.939 8.625 124.392 9.5C123.845 10.375 123.431 11.4609 123.15 12.7578C122.884 14.0391 122.752 15.5234 122.752 17.2109V18.6406C122.752 20.3125 122.884 21.7969 123.15 23.0938C123.431 24.375 123.845 25.4609 124.392 26.3516C124.955 27.2422 125.642 27.9141 126.455 28.3672C127.283 28.8203 128.244 29.0469 129.338 29.0469C130.384 29.0469 131.314 28.8203 132.127 28.3672C132.939 27.9141 133.619 27.2422 134.166 26.3516C134.728 25.4609 135.15 24.375 135.431 23.0938C135.728 21.7969 135.877 20.3125 135.877 18.6406Z" fill="#D40302"/>
<path d="M160.008 20.4922H151.219L151.172 15.1016H158.297C159.578 15.1016 160.602 14.9609 161.367 14.6797C162.133 14.3828 162.688 13.9531 163.031 13.3906C163.391 12.8281 163.57 12.125 163.57 11.2812C163.57 10.3125 163.391 9.53125 163.031 8.9375C162.672 8.34375 162.102 7.91406 161.32 7.64844C160.555 7.36719 159.562 7.22656 158.344 7.22656H154.312V35H146.086V0.875H158.344C160.453 0.875 162.336 1.07031 163.992 1.46094C165.648 1.83594 167.055 2.41406 168.211 3.19531C169.383 3.97656 170.273 4.96094 170.883 6.14844C171.492 7.32031 171.797 8.70312 171.797 10.2969C171.797 11.6875 171.5 12.9922 170.906 14.2109C170.312 15.4297 169.32 16.4219 167.93 17.1875C166.555 17.9375 164.672 18.3281 162.281 18.3594L160.008 20.4922ZM159.68 35H149.227L152.039 28.6719H159.68C160.805 28.6719 161.703 28.5 162.375 28.1562C163.062 27.7969 163.555 27.3281 163.852 26.75C164.164 26.1562 164.32 25.5 164.32 24.7812C164.32 23.9062 164.172 23.1484 163.875 22.5078C163.594 21.8672 163.141 21.375 162.516 21.0312C161.891 20.6719 161.055 20.4922 160.008 20.4922H153.094L153.141 15.1016H161.414L163.336 17.2578C165.617 17.1641 167.422 17.4844 168.75 18.2188C170.094 18.9531 171.055 19.9219 171.633 21.125C172.211 22.3281 172.5 23.5859 172.5 24.8984C172.5 27.1328 172.016 29 171.047 30.5C170.094 32 168.664 33.125 166.758 33.875C164.852 34.625 162.492 35 159.68 35ZM189.131 8.04688L180.811 35H171.975L184.514 0.875H190.116L189.131 8.04688ZM196.022 35L187.678 8.04688L186.6 0.875H192.272L204.881 35H196.022ZM195.694 22.2734V28.625H178.186V22.2734H195.694ZM207.661 0.875L213.942 15.6875L220.247 0.875H229.106L218.137 22.7422V35H209.77V22.7422L198.778 0.875H207.661Z" fill="#373737"/>
<path d="M19.125 0.875H20.125V-0.125H19.125V0.875ZM19.125 35V36H20.125V35H19.125ZM10.8984 35H9.89844V36H10.8984V35ZM10.8984 0.875V-0.125H9.89844V0.875H10.8984ZM29.3906 0.875H30.3906V-0.125H29.3906V0.875ZM29.3906 7.22656V8.22656H30.3906V7.22656H29.3906ZM0.867188 7.22656H-0.132812V8.22656H0.867188V7.22656ZM0.867188 0.875V-0.125H-0.132812V0.875H0.867188ZM18.125 0.875V35H20.125V0.875H18.125ZM19.125 34H10.8984V36H19.125V34ZM11.8984 35V0.875H9.89844V35H11.8984ZM10.8984 1.875H19.125V-0.125H10.8984V1.875ZM28.3906 0.875V7.22656H30.3906V0.875H28.3906ZM29.3906 6.22656H0.867188V8.22656H29.3906V6.22656ZM1.86719 7.22656V0.875H-0.132812V7.22656H1.86719ZM0.867188 1.875H29.3906V-0.125H0.867188V1.875ZM53.9672 28.6719H54.9672V27.6719H53.9672V28.6719ZM53.9672 35V36H54.9672V35H53.9672ZM35.7797 35H34.7797V36H35.7797V35ZM35.7797 28.6719V27.6719H34.7797V28.6719H35.7797ZM38.7094 0.875H39.7094V-0.125H38.7094V0.875ZM38.7094 35V36H39.7094V35H38.7094ZM30.4828 35H29.4828V36H30.4828V35ZM30.4828 0.875V-0.125H29.4828V0.875H30.4828ZM51.6234 14.4219H52.6234V13.4219H51.6234V14.4219ZM51.6234 20.5391V21.5391H52.6234V20.5391H51.6234ZM35.7797 20.5391H34.7797V21.5391H35.7797V20.5391ZM35.7797 14.4219V13.4219H34.7797V14.4219H35.7797ZM54.0375 0.875H55.0375V-0.125H54.0375V0.875ZM54.0375 7.22656V8.22656H55.0375V7.22656H54.0375ZM35.7797 7.22656H34.7797V8.22656H35.7797V7.22656ZM35.7797 0.875V-0.125H34.7797V0.875H35.7797ZM52.9672 28.6719V35H54.9672V28.6719H52.9672ZM53.9672 34H35.7797V36H53.9672V34ZM36.7797 35V28.6719H34.7797V35H36.7797ZM35.7797 29.6719H53.9672V27.6719H35.7797V29.6719ZM37.7094 0.875V35H39.7094V0.875H37.7094ZM38.7094 34H30.4828V36H38.7094V34ZM31.4828 35V0.875H29.4828V35H31.4828ZM30.4828 1.875H38.7094V-0.125H30.4828V1.875ZM50.6234 14.4219V20.5391H52.6234V14.4219H50.6234ZM51.6234 19.5391H35.7797V21.5391H51.6234V19.5391ZM36.7797 20.5391V14.4219H34.7797V20.5391H36.7797ZM35.7797 15.4219H51.6234V13.4219H35.7797V15.4219ZM53.0375 0.875V7.22656H55.0375V0.875H53.0375ZM54.0375 6.22656H35.7797V8.22656H54.0375V6.22656ZM36.7797 7.22656V0.875H34.7797V7.22656H36.7797ZM35.7797 1.875H54.0375V-0.125H35.7797V1.875ZM74.3484 23.4453V22.4453H73.3725L73.3487 23.4209L74.3484 23.4453ZM82.5516 23.4453L83.5505 23.4913L83.5987 22.4453H82.5516V23.4453ZM75.7547 33.9688L76.191 34.8686L76.1938 34.8672L75.7547 33.9688ZM62.325 34.3203L61.9301 35.239L61.933 35.2403L62.325 34.3203ZM57.7781 31.0156L57.0194 31.6671L57.0235 31.6718L57.7781 31.0156ZM54.9422 25.7891L53.9878 26.0878L53.9899 26.0944L54.9422 25.7891ZM54.9891 10.1094L54.0404 9.79314L54.0389 9.7975L54.9891 10.1094ZM57.8953 4.85938L57.1412 4.20259L57.1407 4.2032L57.8953 4.85938ZM80.6063 6.35938L79.7507 6.87704L79.7526 6.88024L80.6063 6.35938ZM82.5984 12.6641V13.6641H83.6882L83.5948 12.5783L82.5984 12.6641ZM74.3953 12.6641L73.3956 12.6884L73.4194 13.6641H74.3953V12.6641ZM73.7391 9.45312L72.832 9.87425L72.835 9.8805L73.7391 9.45312ZM62.6766 12.3359L61.6946 12.1466L61.6929 12.156L62.6766 12.3359ZM65.5828 28.4609L65.1283 29.3517L65.1391 29.3572L65.1501 29.3625L65.5828 28.4609ZM71.6063 28.4375L72.0201 29.3479L72.0269 29.3448L72.0336 29.3416L71.6063 28.4375ZM73.5984 26.6094L74.4647 27.1091L74.4687 27.102L73.5984 26.6094ZM74.3484 24.4453H82.5516V22.4453H74.3484V24.4453ZM81.5526 23.3993C81.4505 25.6159 80.8561 27.5345 79.7899 29.1836L81.4695 30.2695C82.747 28.2936 83.4338 26.0247 83.5505 23.4913L81.5526 23.3993ZM79.7899 29.1836C78.7239 30.8324 77.2425 32.1286 75.3156 33.0703L76.1938 34.8672C78.4231 33.7777 80.1917 32.2457 81.4695 30.2695L79.7899 29.1836ZM75.3184 33.0689C73.4192 33.9897 71.1372 34.4688 68.4422 34.4688V36.4688C71.3722 36.4688 73.9651 35.9478 76.191 34.8686L75.3184 33.0689ZM68.4422 34.4688C66.2733 34.4688 64.3709 34.105 62.717 33.4003L61.933 35.2403C63.8729 36.0668 66.0486 36.4688 68.4422 36.4688V34.4688ZM62.7199 33.4016C61.0742 32.6942 59.6823 31.6814 58.5327 30.3594L57.0235 31.6718C58.374 33.2248 60.0133 34.4151 61.9301 35.239L62.7199 33.4016ZM58.5368 30.3642C57.4004 29.0407 56.5154 27.4205 55.8944 25.4838L53.9899 26.0944C54.6815 28.2514 55.6871 30.1156 57.0195 31.6671L58.5368 30.3642ZM55.8965 25.4904C55.2914 23.5569 54.9813 21.3553 54.9813 18.875H52.9813C52.9813 21.5197 53.3117 23.9275 53.9878 26.0878L55.8965 25.4904ZM54.9813 18.875V17.0234H52.9813V18.875H54.9813ZM54.9813 17.0234C54.9813 14.5474 55.3059 12.3505 55.9392 10.4212L54.0389 9.7975C53.3284 11.962 52.9813 14.3745 52.9813 17.0234H54.9813ZM55.9377 10.4256C56.5894 8.47056 57.4977 6.84057 58.6499 5.51555L57.1407 4.2032C55.7929 5.75318 54.7637 7.62319 54.0404 9.79315L55.9377 10.4256ZM58.6494 5.51616C59.8173 4.17522 61.2113 3.15498 62.84 2.44871L62.0444 0.613793C60.1419 1.43877 58.5046 2.63728 57.1412 4.20259L58.6494 5.51616ZM62.84 2.44871C64.4658 1.74373 66.2891 1.38281 68.325 1.38281V-0.617188C66.0484 -0.617188 63.9498 -0.212483 62.0444 0.613793L62.84 2.44871ZM68.325 1.38281C71.1781 1.38281 73.5182 1.89365 75.3877 2.86411L76.3092 1.08901C74.085 -0.0655286 71.4094 -0.617188 68.325 -0.617188V1.38281ZM75.3877 2.86411C77.2819 3.84735 78.7267 5.18464 79.7507 6.87704L81.4618 5.84171C80.2358 3.81536 78.5087 2.23078 76.3092 1.08901L75.3877 2.86411ZM79.7526 6.88024C80.7895 8.57959 81.411 10.5295 81.6021 12.7498L83.5948 12.5783C83.3797 10.0799 82.673 7.82666 81.4599 5.83851L79.7526 6.88024ZM82.5984 11.6641H74.3953V13.6641H82.5984V11.6641ZM75.395 12.6397C75.3615 11.2648 75.126 10.0471 74.6431 9.02575L72.835 9.8805C73.1647 10.5779 73.3666 11.5008 73.3956 12.6884L75.395 12.6397ZM74.6461 9.03201C74.1431 7.94865 73.3387 7.1271 72.2644 6.58995L71.37 8.3788C72.0457 8.71665 72.5225 9.2076 72.8321 9.87424L74.6461 9.03201ZM72.2644 6.58995C71.1996 6.05756 69.8641 5.82812 68.325 5.82812V7.82812C69.6921 7.82812 70.6848 8.03619 71.37 8.3788L72.2644 6.58995ZM68.325 5.82812C67.1865 5.82812 66.1445 6.03862 65.2293 6.4962L66.1238 8.28505C66.7086 7.99263 67.4323 7.82812 68.325 7.82812V5.82812ZM65.2293 6.4962C64.2906 6.96556 63.5338 7.69895 62.9499 8.64778L64.6532 9.69597C65.0693 9.0198 65.5625 8.56569 66.1238 8.28505L65.2293 6.4962ZM62.9499 8.64778C62.3674 9.59433 61.9593 10.7735 61.6946 12.1467L63.6585 12.5252C63.8938 11.3046 64.2357 10.3744 64.6532 9.69597L62.9499 8.64778ZM61.6929 12.156C61.4444 13.5146 61.325 15.1252 61.325 16.9766H63.325C63.325 15.2029 63.44 13.7198 63.6602 12.5159L61.6929 12.156ZM61.325 16.9766V18.875H63.325V16.9766H61.325ZM61.325 18.875C61.325 20.7237 61.4363 22.3302 61.6674 23.6839L63.6389 23.3473C63.4325 22.1386 63.325 20.6513 63.325 18.875H61.325ZM61.6674 23.6839C61.8996 25.0443 62.2826 26.2185 62.8489 27.1683L64.5668 26.1442C64.1642 25.469 63.8441 24.5495 63.6389 23.3473L61.6674 23.6839ZM62.8489 27.1683C63.4197 28.1258 64.1783 28.867 65.1283 29.3517L66.0373 27.5702C65.4561 27.2737 64.9647 26.8117 64.5668 26.1442L62.8489 27.1683ZM65.1501 29.3625C66.1004 29.8186 67.2104 30.0234 68.4422 30.0234V28.0234C67.424 28.0234 66.6277 27.8533 66.0155 27.5594L65.1501 29.3625ZM68.4422 30.0234C69.7909 30.0234 70.9958 29.8134 72.0201 29.3479L71.1924 27.5271C70.4979 27.8428 69.5935 28.0234 68.4422 28.0234V30.0234ZM72.0336 29.3416C73.0744 28.8496 73.8927 28.1004 74.4646 27.1091L72.7323 26.1097C72.3667 26.7434 71.8569 27.2129 71.1789 27.5334L72.0336 29.3416ZM74.4687 27.102C75.0416 26.0898 75.3142 24.8607 75.3481 23.4697L73.3487 23.4209C73.3202 24.5924 73.0928 25.4727 72.7282 26.1168L74.4687 27.102ZM112.542 0.875H113.542V-0.125H112.542V0.875ZM112.542 35V36H113.542V35H112.542ZM104.339 35L103.47 35.4942L103.757 36H104.339V35ZM92.2688 13.7656L93.1381 13.2715L91.2688 9.98282V13.7656H92.2688ZM92.2688 35V36H93.2688V35H92.2688ZM84.0422 35H83.0422V36H84.0422V35ZM84.0422 0.875V-0.125H83.0422V0.875H84.0422ZM92.2688 0.875L93.1381 0.380826L92.8506 -0.125H92.2688V0.875ZM104.339 22.1094L103.47 22.6035L105.339 25.8922V22.1094H104.339ZM104.339 0.875V-0.125H103.339V0.875H104.339ZM111.542 0.875V35H113.542V0.875H111.542ZM112.542 34H104.339V36H112.542V34ZM105.208 34.5058L93.1381 13.2715L91.3994 14.2598L103.47 35.4942L105.208 34.5058ZM91.2688 13.7656V35H93.2688V13.7656H91.2688ZM92.2688 34H84.0422V36H92.2688V34ZM85.0422 35V0.875H83.0422V35H85.0422ZM84.0422 1.875H92.2688V-0.125H84.0422V1.875ZM91.3994 1.36917L103.47 22.6035L105.208 21.6152L93.1381 0.380826L91.3994 1.36917ZM105.339 22.1094V0.875H103.339V22.1094H105.339ZM104.339 1.875H112.542V-0.125H104.339V1.875ZM143.119 25.6719L142.176 25.3387L142.174 25.3428L143.119 25.6719ZM140.048 30.9688L140.787 31.6434L140.79 31.6395L140.048 30.9688ZM135.338 34.3203L135.727 35.2415L135.733 35.2386L135.338 34.3203ZM123.291 34.3203L122.895 35.2387L122.904 35.2427L123.291 34.3203ZM118.556 30.9688L117.814 31.6395L117.822 31.6477L118.556 30.9688ZM115.463 25.6719L114.517 25.9988L114.52 26.0073L115.463 25.6719ZM115.463 10.2266L114.52 9.89336L114.517 9.8997L115.463 10.2266ZM118.533 4.92969L117.791 4.25898L117.791 4.2594L118.533 4.92969ZM123.244 1.57812L123.633 2.49932L123.637 2.49768L123.244 1.57812ZM135.291 1.57812L134.895 2.4965L134.904 2.5005L135.291 1.57812ZM140.025 4.92969L139.283 5.6004L139.287 5.60433L140.025 4.92969ZM135.431 12.7578L134.454 12.9698L134.457 12.9835L135.431 12.7578ZM132.08 7.53125L131.593 8.40461L131.603 8.41014L131.613 8.41544L132.08 7.53125ZM126.431 7.53125L126.905 8.41172L126.912 8.40822L126.918 8.40461L126.431 7.53125ZM123.15 12.7578L122.173 12.5459L122.171 12.5548L123.15 12.7578ZM123.15 23.0938L122.17 23.2944L122.173 23.3082L123.15 23.0938ZM124.392 26.3516L123.54 26.8749L123.547 26.8856L124.392 26.3516ZM126.455 28.3672L125.968 29.2406L125.975 29.2444L126.455 28.3672ZM134.166 26.3516L133.32 25.8175L133.313 25.8283L134.166 26.3516ZM135.431 23.0938L134.456 22.8706L134.455 22.8793L135.431 23.0938ZM143.22 17.2578V18.6406H145.22V17.2578H143.22ZM143.22 18.6406C143.22 21.1569 142.866 23.3852 142.176 25.3387L144.062 26.0051C144.84 23.8023 145.22 21.3431 145.22 18.6406H143.22ZM142.174 25.3428C141.495 27.2921 140.536 28.9382 139.307 30.298L140.79 31.6395C142.217 30.0618 143.305 28.1767 144.063 26.001L142.174 25.3428ZM139.31 30.2941C138.078 31.6424 136.624 32.6767 134.942 33.402L135.733 35.2386C137.676 34.4015 139.363 33.2014 140.787 31.6434L139.31 30.2941ZM134.948 33.3991C133.272 34.1072 131.406 34.4688 129.338 34.4688V36.4688C131.644 36.4688 133.778 36.0647 135.727 35.2415L134.948 33.3991ZM129.338 34.4688C127.252 34.4688 125.37 34.1069 123.677 33.3979L122.904 35.2427C124.868 36.065 127.017 36.4688 129.338 36.4688V34.4688ZM123.686 33.402C122.003 32.6762 120.54 31.6407 119.29 30.2898L117.822 31.6477C119.26 33.2031 120.954 34.4019 122.895 35.2386L123.686 33.402ZM119.298 30.298C118.067 28.9366 117.1 27.2882 116.405 25.3364L114.52 26.0073C115.294 28.1805 116.389 30.0634 117.815 31.6395L119.298 30.298ZM116.408 25.345C115.731 23.3896 115.384 21.159 115.384 18.6406H113.384C113.384 21.341 113.756 23.7979 114.517 25.9987L116.408 25.345ZM115.384 18.6406V17.2578H113.384V18.6406H115.384ZM115.384 17.2578C115.384 14.7395 115.731 12.5089 116.408 10.5534L114.517 9.8997C113.756 12.1005 113.384 14.5574 113.384 17.2578H115.384ZM116.405 10.5598C117.101 8.59054 118.061 6.94352 119.275 5.59997L117.791 4.2594C116.379 5.82211 115.293 7.70633 114.52 9.89337L116.405 10.5598ZM119.275 5.60039C120.505 4.23914 121.956 3.20779 123.633 2.49931L122.855 0.656939C120.907 1.47971 119.216 2.68273 117.791 4.25898L119.275 5.60039ZM123.637 2.49768C125.328 1.77498 127.208 1.40625 129.291 1.40625V-0.59375C126.967 -0.59375 124.816 -0.181232 122.851 0.658574L123.637 2.49768ZM129.291 1.40625C131.357 1.40625 133.22 1.77465 134.895 2.49645L135.686 0.659801C133.736 -0.180898 131.599 -0.59375 129.291 -0.59375V1.40625ZM134.904 2.5005C136.597 3.20942 138.054 4.24073 139.283 5.60039L140.767 4.25898C139.34 2.68115 137.64 1.47808 135.677 0.655749L134.904 2.5005ZM139.287 5.60433C140.514 6.94733 141.481 8.5929 142.176 10.5598L144.062 9.89337C143.288 7.70397 142.192 5.8183 140.763 4.25504L139.287 5.60433ZM142.176 10.5598C142.866 12.5132 143.22 14.7416 143.22 17.2578H145.22C145.22 14.5553 144.84 12.0962 144.062 9.89337L142.176 10.5598ZM136.877 18.6406V17.2109H134.877V18.6406H136.877ZM136.877 17.2109C136.877 15.4677 136.723 13.9047 136.405 12.5321L134.457 12.9835C134.733 14.1734 134.877 15.5792 134.877 17.2109H136.877ZM136.409 12.5459C136.109 11.1629 135.649 9.95828 135.007 8.95924L133.324 10.0408C133.807 10.7917 134.191 11.759 134.454 12.9698L136.409 12.5459ZM135.007 8.95924C134.362 7.95586 133.543 7.17357 132.547 6.64706L131.613 8.41544C132.272 8.76393 132.844 9.29414 133.324 10.0408L135.007 8.95924ZM132.567 6.65789C131.587 6.11174 130.486 5.85156 129.291 5.85156V7.85156C130.189 7.85156 130.947 8.04451 131.593 8.40461L132.567 6.65789ZM129.291 5.85156C128.056 5.85156 126.93 6.1082 125.944 6.65789L126.918 8.40461C127.558 8.04805 128.337 7.85156 129.291 7.85156V5.85156ZM125.957 6.65078C124.974 7.18004 124.172 7.96546 123.544 8.97L125.24 10.03C125.706 9.28454 126.263 8.75746 126.905 8.41172L125.957 6.65078ZM123.544 8.97C122.922 9.96623 122.472 11.167 122.173 12.5459L124.127 12.9698C124.391 11.7549 124.769 10.7838 125.24 10.03L123.544 8.97ZM122.171 12.5548C121.888 13.9188 121.752 15.4737 121.752 17.2109H123.752C123.752 15.5731 123.881 14.1593 124.129 12.9608L122.171 12.5548ZM121.752 17.2109V18.6406H123.752V17.2109H121.752ZM121.752 18.6406C121.752 20.3632 121.888 21.9169 122.17 23.2944L124.13 22.8931C123.881 21.6768 123.752 20.2618 123.752 18.6406H121.752ZM122.173 23.3082C122.473 24.6719 122.922 25.8682 123.54 26.8748L125.244 25.8283C124.769 25.0537 124.39 24.0781 124.127 22.8793L122.173 23.3082ZM123.547 26.8856C124.186 27.8985 124.991 28.6958 125.968 29.2406L126.942 27.4938C126.294 27.1324 125.723 26.5858 125.238 25.8176L123.547 26.8856ZM125.975 29.2444C126.972 29.7901 128.103 30.0469 129.338 30.0469V28.0469C128.385 28.0469 127.594 27.8506 126.935 27.4899L125.975 29.2444ZM129.338 30.0469C130.533 30.0469 131.634 29.7867 132.614 29.2406L131.639 27.4938C130.994 27.8539 130.236 28.0469 129.338 28.0469V30.0469ZM132.614 29.2406C133.594 28.694 134.393 27.8932 135.018 26.8748L133.313 25.8283C132.845 26.5912 132.285 27.1341 131.639 27.4938L132.614 29.2406ZM135.011 26.8856C135.649 25.8761 136.108 24.676 136.408 23.3082L134.455 22.8793C134.192 24.074 133.808 25.0458 133.32 25.8176L135.011 26.8856ZM136.406 23.3169C136.723 21.931 136.877 20.3694 136.877 18.6406H134.877C134.877 20.2556 134.733 21.6628 134.456 22.8706L136.406 23.3169ZM160.008 20.4922V21.4922H160.403L160.692 21.2215L160.008 20.4922ZM151.219 20.4922L150.219 20.5009L150.227 21.4922H151.219V20.4922ZM151.172 15.1016V14.1016H150.163L150.172 15.1103L151.172 15.1016ZM161.367 14.6797L161.712 15.6184L161.72 15.6153L161.729 15.612L161.367 14.6797ZM163.031 13.3906L162.189 12.8522L162.183 12.8607L162.178 12.8692L163.031 13.3906ZM161.32 7.64844L160.975 8.58711L160.987 8.5913L160.998 8.59521L161.32 7.64844ZM154.312 7.22656V6.22656H153.312V7.22656H154.312ZM154.312 35V36H155.312V35H154.312ZM146.086 35H145.086V36H146.086V35ZM146.086 0.875V-0.125H145.086V0.875H146.086ZM163.992 1.46094L163.763 2.43427L163.771 2.43625L163.992 1.46094ZM168.211 3.19531L167.651 4.02392L167.656 4.02736L168.211 3.19531ZM170.883 6.14844L169.993 6.605L169.996 6.60979L170.883 6.14844ZM167.93 17.1875L168.409 18.0654L168.412 18.0635L167.93 17.1875ZM162.281 18.3594L162.268 17.3595L161.88 17.3645L161.597 17.6301L162.281 18.3594ZM149.227 35L148.313 34.5939L147.688 36H149.227V35ZM152.039 28.6719V27.6719H151.389L151.125 28.2657L152.039 28.6719ZM162.375 28.1562L162.83 29.0465L162.838 29.0425L162.375 28.1562ZM163.852 26.75L162.967 26.2842L162.962 26.2932L163.852 26.75ZM163.875 22.5078L162.959 22.9098L162.963 22.9191L162.968 22.9283L163.875 22.5078ZM162.516 21.0312L162.017 21.8982L162.025 21.9029L162.034 21.9075L162.516 21.0312ZM153.094 20.4922L152.094 20.4835L152.085 21.4922H153.094V20.4922ZM153.141 15.1016V14.1016H152.149L152.141 15.0929L153.141 15.1016ZM161.414 15.1016L162.161 14.4362L161.862 14.1016H161.414V15.1016ZM163.336 17.2578L162.589 17.9232L162.904 18.2764L163.377 18.257L163.336 17.2578ZM168.75 18.2188L168.266 19.0939L168.27 19.0963L168.75 18.2188ZM171.047 30.5L170.207 29.9575L170.203 29.9637L171.047 30.5ZM160.008 19.4922H151.219V21.4922H160.008V19.4922ZM152.219 20.4835L152.172 15.0929L150.172 15.1103L150.219 20.5009L152.219 20.4835ZM151.172 16.1016H158.297V14.1016H151.172V16.1016ZM158.297 16.1016C159.636 16.1016 160.791 15.9566 161.712 15.6184L161.022 13.741C160.412 13.9653 159.52 14.1016 158.297 14.1016V16.1016ZM161.729 15.612C162.648 15.2557 163.401 14.7038 163.885 13.9121L162.178 12.8692C161.974 13.2025 161.618 13.5099 161.006 13.7473L161.729 15.612ZM163.874 13.929C164.36 13.1682 164.57 12.2657 164.57 11.2812H162.57C162.57 11.9843 162.421 12.4881 162.189 12.8522L163.874 13.929ZM164.57 11.2812C164.57 10.199 164.371 9.21966 163.887 8.4197L162.176 9.4553C162.41 9.84284 162.57 10.426 162.57 11.2812H164.57ZM163.887 8.4197C163.383 7.58811 162.602 7.02806 161.642 6.70166L160.998 8.59521C161.601 8.80006 161.96 9.09939 162.176 9.4553L163.887 8.4197ZM161.665 6.70977C160.749 6.37313 159.628 6.22656 158.344 6.22656V8.22656C159.497 8.22656 160.361 8.36124 160.975 8.58711L161.665 6.70977ZM158.344 6.22656H154.312V8.22656H158.344V6.22656ZM153.312 7.22656V35H155.312V7.22656H153.312ZM154.312 34H146.086V36H154.312V34ZM147.086 35V0.875H145.086V35H147.086ZM146.086 1.875H158.344V-0.125H146.086V1.875ZM158.344 1.875C160.393 1.875 162.197 2.06498 163.763 2.43423L164.222 0.487641C162.475 0.0756444 160.513 -0.125 158.344 -0.125V1.875ZM163.771 2.43625C165.332 2.7896 166.617 3.32547 167.651 4.0239L168.771 2.36672C167.492 1.50265 165.965 0.882274 164.213 0.485624L163.771 2.43625ZM167.656 4.02736C168.694 4.71946 169.466 5.57761 169.993 6.60499L171.773 5.69188C171.081 4.34426 170.071 3.23367 168.766 2.36326L167.656 4.02736ZM169.996 6.60979C170.517 7.61261 170.797 8.83085 170.797 10.2969H172.797C172.797 8.5754 172.467 7.02802 171.77 5.68708L169.996 6.60979ZM170.797 10.2969C170.797 11.5398 170.533 12.6942 170.007 13.773L171.805 14.6489C172.467 13.2901 172.797 11.8352 172.797 10.2969H170.797ZM170.007 13.773C169.519 14.7761 168.689 15.6279 167.447 16.3115L168.412 18.0635C169.952 17.2159 171.106 16.0833 171.805 14.6489L170.007 13.773ZM167.451 16.3096C166.275 16.9512 164.574 17.3293 162.268 17.3595L162.294 19.3593C164.77 19.3269 166.835 18.9238 168.409 18.0654L167.451 16.3096ZM161.597 17.6301L159.324 19.7629L160.692 21.2215L162.965 19.0887L161.597 17.6301ZM159.68 34H149.227V36H159.68V34ZM150.14 35.4061L152.953 29.078L151.125 28.2657L148.313 34.5939L150.14 35.4061ZM152.039 29.6719H159.68V27.6719H152.039V29.6719ZM159.68 29.6719C160.892 29.6719 161.965 29.4891 162.83 29.0465L161.92 27.266C161.441 27.5109 160.718 27.6719 159.68 27.6719V29.6719ZM162.838 29.0425C163.673 28.6064 164.333 28.002 164.741 27.2068L162.962 26.2932C162.777 26.6543 162.452 26.9874 161.912 27.27L162.838 29.0425ZM164.736 27.2157C165.13 26.4682 165.32 25.6504 165.32 24.7812H163.32C163.32 25.3496 163.198 25.8443 162.967 26.2843L164.736 27.2157ZM165.32 24.7812C165.32 23.7949 165.153 22.8873 164.782 22.0874L162.968 22.9283C163.191 23.4095 163.32 24.0176 163.32 24.7812H165.32ZM164.791 22.1058C164.419 21.2595 163.811 20.6026 162.998 20.155L162.034 21.9075C162.47 22.1474 162.768 22.4749 162.959 22.9098L164.791 22.1058ZM163.014 20.1643C162.184 19.6871 161.156 19.4922 160.008 19.4922V21.4922C160.954 21.4922 161.597 21.6567 162.017 21.8982L163.014 20.1643ZM160.008 19.4922H153.094V21.4922H160.008V19.4922ZM154.094 20.5009L154.141 15.1103L152.141 15.0929L152.094 20.4835L154.094 20.5009ZM153.141 16.1016H161.414V14.1016H153.141V16.1016ZM160.668 15.7669L162.589 17.9232L164.082 16.5924L162.161 14.4362L160.668 15.7669ZM163.377 18.257C165.561 18.1672 167.16 18.4821 168.266 19.0939L169.234 17.3436C167.684 16.4867 165.673 16.1609 163.295 16.2587L163.377 18.257ZM168.27 19.0963C169.459 19.7456 170.257 20.5705 170.731 21.5581L172.534 20.6919C171.852 19.2733 170.729 18.1606 169.23 17.3412L168.27 19.0963ZM170.731 21.5581C171.246 22.6285 171.5 23.7385 171.5 24.8984H173.5C173.5 23.4334 173.176 22.0278 172.534 20.6919L170.731 21.5581ZM171.5 24.8984C171.5 26.9886 171.048 28.6554 170.207 29.9575L171.887 31.0425C172.984 29.3446 173.5 27.277 173.5 24.8984H171.5ZM170.203 29.9637C169.38 31.2586 168.132 32.2597 166.392 32.9444L167.124 34.8056C169.196 33.9903 170.807 32.7414 171.891 31.0363L170.203 29.9637ZM166.392 32.9444C164.637 33.6349 162.41 34 159.68 34V36C162.574 36 165.066 35.6151 167.124 34.8056L166.392 32.9444ZM189.131 8.04688L190.087 8.34184L190.111 8.26378L190.122 8.18286L189.131 8.04688ZM180.811 35V36H181.549L181.766 35.295L180.811 35ZM171.975 35L171.036 34.6551L170.542 36H171.975V35ZM184.514 0.875V-0.125H183.816L183.575 0.530101L184.514 0.875ZM190.116 0.875L191.106 1.01098L191.262 -0.125H190.116V0.875ZM196.022 35L195.067 35.2957L195.285 36H196.022V35ZM187.678 8.04688L186.689 8.19553L186.7 8.27033L186.723 8.34259L187.678 8.04688ZM186.6 0.875V-0.125H185.438L185.611 1.02366L186.6 0.875ZM192.272 0.875L193.21 0.528399L192.968 -0.125H192.272V0.875ZM204.881 35V36H206.317L205.819 34.6534L204.881 35ZM195.694 22.2734H196.694V21.2734H195.694V22.2734ZM195.694 28.625V29.625H196.694V28.625H195.694ZM178.186 28.625H177.186V29.625H178.186V28.625ZM178.186 22.2734V21.2734H177.186V22.2734H178.186ZM188.176 7.75191L179.855 34.705L181.766 35.295L190.087 8.34184L188.176 7.75191ZM180.811 34H171.975V36H180.811V34ZM172.914 35.3449L185.453 1.2199L183.575 0.530101L171.036 34.6551L172.914 35.3449ZM184.514 1.875H190.116V-0.125H184.514V1.875ZM189.125 0.73902L188.141 7.91089L190.122 8.18286L191.106 1.01098L189.125 0.73902ZM196.977 34.7043L188.633 7.75116L186.723 8.34259L195.067 35.2957L196.977 34.7043ZM188.667 7.89822L187.589 0.726343L185.611 1.02366L186.689 8.19553L188.667 7.89822ZM186.6 1.875H192.272V-0.125H186.6V1.875ZM191.334 1.2216L203.943 35.3466L205.819 34.6534L193.21 0.528399L191.334 1.2216ZM204.881 34H196.022V36H204.881V34ZM194.694 22.2734V28.625H196.694V22.2734H194.694ZM195.694 27.625H178.186V29.625H195.694V27.625ZM179.186 28.625V22.2734H177.186V28.625H179.186ZM178.186 23.2734H195.694V21.2734H178.186V23.2734ZM207.661 0.875L208.582 0.4846L208.323 -0.125H207.661V0.875ZM213.942 15.6875L213.022 16.0779L213.94 18.2449L214.862 16.0791L213.942 15.6875ZM220.247 0.875V-0.125H219.586L219.327 0.483366L220.247 0.875ZM229.106 0.875L230 1.32336L230.727 -0.125H229.106V0.875ZM218.137 22.7422L217.244 22.2938L217.137 22.5054V22.7422H218.137ZM218.137 35V36H219.137V35H218.137ZM209.77 35H208.77V36H209.77V35ZM209.77 22.7422H210.77V22.505L210.664 22.2931L209.77 22.7422ZM198.778 0.875V-0.125H197.156L197.885 1.32413L198.778 0.875ZM206.74 1.2654L213.022 16.0779L214.863 15.2971L208.582 0.4846L206.74 1.2654ZM214.862 16.0791L221.167 1.26663L219.327 0.483366L213.022 15.2959L214.862 16.0791ZM220.247 1.875H229.106V-0.125H220.247V1.875ZM228.212 0.426637L217.244 22.2938L219.031 23.1906L230 1.32336L228.212 0.426637ZM217.137 22.7422V35H219.137V22.7422H217.137ZM218.137 34H209.77V36H218.137V34ZM210.77 35V22.7422H208.77V35H210.77ZM210.664 22.2931L199.672 0.425872L197.885 1.32413L208.877 23.1913L210.664 22.2931ZM198.778 1.875H207.661V-0.125H198.778V1.875Z" fill="white" mask="url(#path-1-outside-1_7_2)"/>
</svg>
