<svg width="230" height="36" viewBox="0 0 230 36" fill="none" xmlns="http://www.w3.org/2000/svg">
<path d="M19.125 0.875V35H10.8984V0.875H19.125ZM29.3906 0.875V7.22656H0.867188V0.875H29.3906ZM53.9672 28.6719V35H35.7797V28.6719H53.9672ZM38.7094 0.875V35H30.4828V0.875H38.7094ZM51.6234 14.4219V20.5391H35.7797V14.4219H51.6234ZM54.0375 0.875V7.22656H35.7797V0.875H54.0375ZM74.3484 23.4453H82.5516C82.4422 25.8203 81.8016 27.9141 80.6297 29.7266C79.4578 31.5391 77.8328 32.9531 75.7547 33.9688C73.6922 34.9688 71.2547 35.4688 68.4422 35.4688C66.1609 35.4688 64.1219 35.0859 62.325 34.3203C60.5438 33.5547 59.0281 32.4531 57.7781 31.0156C56.5438 29.5781 55.5984 27.8359 54.9422 25.7891C54.3016 23.7422 53.9813 21.4375 53.9813 18.875V17.0234C53.9813 14.4609 54.3172 12.1562 54.9891 10.1094C55.6766 8.04688 56.6453 6.29687 57.8953 4.85938C59.1609 3.40625 60.6766 2.29688 62.4422 1.53125C64.2078 0.765625 66.1688 0.382812 68.325 0.382812C71.2938 0.382812 73.8016 0.914063 75.8484 1.97656C77.8953 3.03906 79.4813 4.5 80.6063 6.35938C81.7313 8.20312 82.3953 10.3047 82.5984 12.6641H74.3953C74.3641 11.3828 74.1453 10.3125 73.7391 9.45312C73.3328 8.57812 72.6922 7.92188 71.8172 7.48438C70.9422 7.04688 69.7781 6.82812 68.325 6.82812C67.3094 6.82812 66.4266 7.01562 65.6766 7.39062C64.9266 7.76562 64.3016 8.35938 63.8016 9.17188C63.3016 9.98438 62.9266 11.0391 62.6766 12.3359C62.4422 13.6172 62.325 15.1641 62.325 16.9766V18.875C62.325 20.6875 62.4344 22.2344 62.6531 23.5156C62.8719 24.7969 63.2234 25.8438 63.7078 26.6562C64.1922 27.4688 64.8172 28.0703 65.5828 28.4609C66.3641 28.8359 67.3172 29.0234 68.4422 29.0234C69.6922 29.0234 70.7469 28.8281 71.6063 28.4375C72.4656 28.0312 73.1297 27.4219 73.5984 26.6094C74.0672 25.7812 74.3172 24.7266 74.3484 23.4453ZM112.542 0.875V35H104.339L92.2688 13.7656V35H84.0422V0.875H92.2688L104.339 22.1094V0.875H112.542ZM144.22 17.2578V18.6406C144.22 21.25 143.853 23.5938 143.119 25.6719C142.4 27.7344 141.377 29.5 140.048 30.9688C138.72 32.4219 137.15 33.5391 135.338 34.3203C133.525 35.0859 131.525 35.4688 129.338 35.4688C127.134 35.4688 125.119 35.0859 123.291 34.3203C121.478 33.5391 119.9 32.4219 118.556 30.9688C117.228 29.5 116.197 27.7344 115.463 25.6719C114.744 23.5938 114.384 21.25 114.384 18.6406V17.2578C114.384 14.6484 114.744 12.3047 115.463 10.2266C116.197 8.14844 117.22 6.38281 118.533 4.92969C119.861 3.46094 121.431 2.34375 123.244 1.57812C125.072 0.796875 127.088 0.40625 129.291 0.40625C131.478 0.40625 133.478 0.796875 135.291 1.57812C137.119 2.34375 138.697 3.46094 140.025 4.92969C141.353 6.38281 142.384 8.14844 143.119 10.2266C143.853 12.3047 144.22 14.6484 144.22 17.2578ZM135.877 18.6406V17.2109C135.877 15.5234 135.728 14.0391 135.431 12.7578C135.15 11.4609 134.728 10.375 134.166 9.5C133.603 8.625 132.908 7.96875 132.08 7.53125C131.267 7.07812 130.338 6.85156 129.291 6.85156C128.197 6.85156 127.244 7.07812 126.431 7.53125C125.619 7.96875 124.939 8.625 124.392 9.5C123.845 10.375 123.431 11.4609 123.15 12.7578C122.884 14.0391 122.752 15.5234 122.752 17.2109V18.6406C122.752 20.3125 122.884 21.7969 123.15 23.0938C123.431 24.375 123.845 25.4609 124.392 26.3516C124.955 27.2422 125.642 27.9141 126.455 28.3672C127.283 28.8203 128.244 29.0469 129.338 29.0469C130.384 29.0469 131.314 28.8203 132.127 28.3672C132.939 27.9141 133.619 27.2422 134.166 26.3516C134.728 25.4609 135.15 24.375 135.431 23.0938C135.728 21.7969 135.877 20.3125 135.877 18.6406Z" fill="#D40302"/>
<path d="M160.008 20.4922H151.219L151.172 15.1016H158.297C159.578 15.1016 160.602 14.9609 161.367 14.6797C162.133 14.3828 162.688 13.9531 163.031 13.3906C163.391 12.8281 163.57 12.125 163.57 11.2812C163.57 10.3125 163.391 9.53125 163.031 8.9375C162.672 8.34375 162.102 7.91406 161.32 7.64844C160.555 7.36719 159.562 7.22656 158.344 7.22656H154.312V35H146.086V0.875H158.344C160.453 0.875 162.336 1.07031 163.992 1.46094C165.648 1.83594 167.055 2.41406 168.211 3.19531C169.383 3.97656 170.273 4.96094 170.883 6.14844C171.492 7.32031 171.797 8.70312 171.797 10.2969C171.797 11.6875 171.5 12.9922 170.906 14.2109C170.312 15.4297 169.32 16.4219 167.93 17.1875C166.555 17.9375 164.672 18.3281 162.281 18.3594L160.008 20.4922ZM159.68 35H149.227L152.039 28.6719H159.68C160.805 28.6719 161.703 28.5 162.375 28.1562C163.062 27.7969 163.555 27.3281 163.852 26.75C164.164 26.1562 164.32 25.5 164.32 24.7812C164.32 23.9062 164.172 23.1484 163.875 22.5078C163.594 21.8672 163.141 21.375 162.516 21.0312C161.891 20.6719 161.055 20.4922 160.008 20.4922H153.094L153.141 15.1016H161.414L163.336 17.2578C165.617 17.1641 167.422 17.4844 168.75 18.2188C170.094 18.9531 171.055 19.9219 171.633 21.125C172.211 22.3281 172.5 23.5859 172.5 24.8984C172.5 27.1328 172.016 29 171.047 30.5C170.094 32 168.664 33.125 166.758 33.875C164.852 34.625 162.492 35 159.68 35ZM189.131 8.04688L180.811 35H171.975L184.514 0.875H190.116L189.131 8.04688ZM196.022 35L187.678 8.04688L186.6 0.875H192.272L204.881 35H196.022ZM195.694 22.2734V28.625H178.186V22.2734H195.694ZM207.661 0.875L213.942 15.6875L220.247 0.875H229.106L218.137 22.7422V35H209.77V22.7422L198.778 0.875H207.661Z" fill="#373737"/>
</svg>
