<svg id="visual" viewBox="0 0 900 600" width="900" height="600" xmlns="http://www.w3.org/2000/svg" xmlns:xlink="http://www.w3.org/1999/xlink" version="1.1"><rect x="0" y="0" width="900" height="600" fill="#001220"></rect><path d="M0 428L9.3 426C18.7 424 37.3 420 56.2 428.5C75 437 94 458 112.8 463.7C131.7 469.3 150.3 459.7 169 445C187.7 430.3 206.3 410.7 225 407.8C243.7 405 262.3 419 281.2 425.7C300 432.3 319 431.7 337.8 446.7C356.7 461.7 375.3 492.3 394 499.2C412.7 506 431.3 489 450 472C468.7 455 487.3 438 506.2 431.5C525 425 544 429 562.8 444.5C581.7 460 600.3 487 619 497.7C637.7 508.3 656.3 502.7 675 486.7C693.7 470.7 712.3 444.3 731.2 440.7C750 437 769 456 787.8 458.2C806.7 460.3 825.3 445.7 844 438.5C862.7 431.3 881.3 431.7 890.7 431.8L900 432L900 601L890.7 601C881.3 601 862.7 601 844 601C825.3 601 806.7 601 787.8 601C769 601 750 601 731.2 601C712.3 601 693.7 601 675 601C656.3 601 637.7 601 619 601C600.3 601 581.7 601 562.8 601C544 601 525 601 506.2 601C487.3 601 468.7 601 450 601C431.3 601 412.7 601 394 601C375.3 601 356.7 601 337.8 601C319 601 300 601 281.2 601C262.3 601 243.7 601 225 601C206.3 601 187.7 601 169 601C150.3 601 131.7 601 112.8 601C94 601 75 601 56.2 601C37.3 601 18.7 601 9.3 601L0 601Z" fill="#fcaf3c"></path><path d="M0 492L9.3 478C18.7 464 37.3 436 56.2 441.7C75 447.3 94 486.7 112.8 492.2C131.7 497.7 150.3 469.3 169 449.5C187.7 429.7 206.3 418.3 225 412.2C243.7 406 262.3 405 281.2 425.7C300 446.3 319 488.7 337.8 491.2C356.7 493.7 375.3 456.3 394 437C412.7 417.7 431.3 416.3 450 434.7C468.7 453 487.3 491 506.2 491.7C525 492.3 544 455.7 562.8 450.2C581.7 444.7 600.3 470.3 619 473C637.7 475.7 656.3 455.3 675 451C693.7 446.7 712.3 458.3 731.2 452.7C750 447 769 424 787.8 428.5C806.7 433 825.3 465 844 468.3C862.7 471.7 881.3 446.3 890.7 433.7L900 421L900 601L890.7 601C881.3 601 862.7 601 844 601C825.3 601 806.7 601 787.8 601C769 601 750 601 731.2 601C712.3 601 693.7 601 675 601C656.3 601 637.7 601 619 601C600.3 601 581.7 601 562.8 601C544 601 525 601 506.2 601C487.3 601 468.7 601 450 601C431.3 601 412.7 601 394 601C375.3 601 356.7 601 337.8 601C319 601 300 601 281.2 601C262.3 601 243.7 601 225 601C206.3 601 187.7 601 169 601C150.3 601 131.7 601 112.8 601C94 601 75 601 56.2 601C37.3 601 18.7 601 9.3 601L0 601Z" fill="#deb134"></path><path d="M0 488L9.3 495.7C18.7 503.3 37.3 518.7 56.2 512C75 505.3 94 476.7 112.8 460.7C131.7 444.7 150.3 441.3 169 449.2C187.7 457 206.3 476 225 491.7C243.7 507.3 262.3 519.7 281.2 526.2C300 532.7 319 533.3 337.8 523C356.7 512.7 375.3 491.3 394 483.3C412.7 475.3 431.3 480.7 450 480C468.7 479.3 487.3 472.7 506.2 469.2C525 465.7 544 465.3 562.8 475.2C581.7 485 600.3 505 619 513.7C637.7 522.3 656.3 519.7 675 507.5C693.7 495.3 712.3 473.7 731.2 473.2C750 472.7 769 493.3 787.8 498.7C806.7 504 825.3 494 844 495.8C862.7 497.7 881.3 511.3 890.7 518.2L900 525L900 601L890.7 601C881.3 601 862.7 601 844 601C825.3 601 806.7 601 787.8 601C769 601 750 601 731.2 601C712.3 601 693.7 601 675 601C656.3 601 637.7 601 619 601C600.3 601 581.7 601 562.8 601C544 601 525 601 506.2 601C487.3 601 468.7 601 450 601C431.3 601 412.7 601 394 601C375.3 601 356.7 601 337.8 601C319 601 300 601 281.2 601C262.3 601 243.7 601 225 601C206.3 601 187.7 601 169 601C150.3 601 131.7 601 112.8 601C94 601 75 601 56.2 601C37.3 601 18.7 601 9.3 601L0 601Z" fill="#bfb135"></path><path d="M0 522L9.3 520.2C18.7 518.3 37.3 514.7 56.2 506.2C75 497.7 94 484.3 112.8 484.5C131.7 484.7 150.3 498.3 169 497.3C187.7 496.3 206.3 480.7 225 479.3C243.7 478 262.3 491 281.2 488.8C300 486.7 319 469.3 337.8 470.8C356.7 472.3 375.3 492.7 394 496.8C412.7 501 431.3 489 450 492.3C468.7 495.7 487.3 514.3 506.2 513.8C525 513.3 544 493.7 562.8 489.3C581.7 485 600.3 496 619 505.2C637.7 514.3 656.3 521.7 675 512C693.7 502.3 712.3 475.7 731.2 465.3C750 455 769 461 787.8 461.5C806.7 462 825.3 457 844 462C862.7 467 881.3 482 890.7 489.5L900 497L900 601L890.7 601C881.3 601 862.7 601 844 601C825.3 601 806.7 601 787.8 601C769 601 750 601 731.2 601C712.3 601 693.7 601 675 601C656.3 601 637.7 601 619 601C600.3 601 581.7 601 562.8 601C544 601 525 601 506.2 601C487.3 601 468.7 601 450 601C431.3 601 412.7 601 394 601C375.3 601 356.7 601 337.8 601C319 601 300 601 281.2 601C262.3 601 243.7 601 225 601C206.3 601 187.7 601 169 601C150.3 601 131.7 601 112.8 601C94 601 75 601 56.2 601C37.3 601 18.7 601 9.3 601L0 601Z" fill="#a2af3c"></path><path d="M0 521L9.3 523.3C18.7 525.7 37.3 530.3 56.2 527.3C75 524.3 94 513.7 112.8 508.3C131.7 503 150.3 503 169 500.8C187.7 498.7 206.3 494.3 225 501.3C243.7 508.3 262.3 526.7 281.2 525.2C300 523.7 319 502.3 337.8 504.2C356.7 506 375.3 531 394 537.3C412.7 543.7 431.3 531.3 450 527C468.7 522.7 487.3 526.3 506.2 519.7C525 513 544 496 562.8 489.5C581.7 483 600.3 487 619 492.7C637.7 498.3 656.3 505.7 675 504C693.7 502.3 712.3 491.7 731.2 488.5C750 485.3 769 489.7 787.8 500.5C806.7 511.3 825.3 528.7 844 532.2C862.7 535.7 881.3 525.3 890.7 520.2L900 515L900 601L890.7 601C881.3 601 862.7 601 844 601C825.3 601 806.7 601 787.8 601C769 601 750 601 731.2 601C712.3 601 693.7 601 675 601C656.3 601 637.7 601 619 601C600.3 601 581.7 601 562.8 601C544 601 525 601 506.2 601C487.3 601 468.7 601 450 601C431.3 601 412.7 601 394 601C375.3 601 356.7 601 337.8 601C319 601 300 601 281.2 601C262.3 601 243.7 601 225 601C206.3 601 187.7 601 169 601C150.3 601 131.7 601 112.8 601C94 601 75 601 56.2 601C37.3 601 18.7 601 9.3 601L0 601Z" fill="#86ac46"></path><path d="M0 519L9.3 515.5C18.7 512 37.3 505 56.2 501.7C75 498.3 94 498.7 112.8 500C131.7 501.3 150.3 503.7 169 513.7C187.7 523.7 206.3 541.3 225 543.2C243.7 545 262.3 531 281.2 528.2C300 525.3 319 533.7 337.8 538.5C356.7 543.3 375.3 544.7 394 544.8C412.7 545 431.3 544 450 538.8C468.7 533.7 487.3 524.3 506.2 519.8C525 515.3 544 515.7 562.8 523.8C581.7 532 600.3 548 619 556.5C637.7 565 656.3 566 675 560C693.7 554 712.3 541 731.2 535C750 529 769 530 787.8 524C806.7 518 825.3 505 844 504.7C862.7 504.3 881.3 516.7 890.7 522.8L900 529L900 601L890.7 601C881.3 601 862.7 601 844 601C825.3 601 806.7 601 787.8 601C769 601 750 601 731.2 601C712.3 601 693.7 601 675 601C656.3 601 637.7 601 619 601C600.3 601 581.7 601 562.8 601C544 601 525 601 506.2 601C487.3 601 468.7 601 450 601C431.3 601 412.7 601 394 601C375.3 601 356.7 601 337.8 601C319 601 300 601 281.2 601C262.3 601 243.7 601 225 601C206.3 601 187.7 601 169 601C150.3 601 131.7 601 112.8 601C94 601 75 601 56.2 601C37.3 601 18.7 601 9.3 601L0 601Z" fill="#6ba752"></path><path d="M0 522L9.3 521.3C18.7 520.7 37.3 519.3 56.2 526.5C75 533.7 94 549.3 112.8 551C131.7 552.7 150.3 540.3 169 534.3C187.7 528.3 206.3 528.7 225 536.7C243.7 544.7 262.3 560.3 281.2 563.8C300 567.3 319 558.7 337.8 549.2C356.7 539.7 375.3 529.3 394 524.2C412.7 519 431.3 519 450 518.5C468.7 518 487.3 517 506.2 517C525 517 544 518 562.8 523.8C581.7 529.7 600.3 540.3 619 548.5C637.7 556.7 656.3 562.3 675 565.7C693.7 569 712.3 570 731.2 565.3C750 560.7 769 550.3 787.8 549.5C806.7 548.7 825.3 557.3 844 555.7C862.7 554 881.3 542 890.7 536L900 530L900 601L890.7 601C881.3 601 862.7 601 844 601C825.3 601 806.7 601 787.8 601C769 601 750 601 731.2 601C712.3 601 693.7 601 675 601C656.3 601 637.7 601 619 601C600.3 601 581.7 601 562.8 601C544 601 525 601 506.2 601C487.3 601 468.7 601 450 601C431.3 601 412.7 601 394 601C375.3 601 356.7 601 337.8 601C319 601 300 601 281.2 601C262.3 601 243.7 601 225 601C206.3 601 187.7 601 169 601C150.3 601 131.7 601 112.8 601C94 601 75 601 56.2 601C37.3 601 18.7 601 9.3 601L0 601Z" fill="#4fa25e"></path><path d="M0 556L9.3 552.7C18.7 549.3 37.3 542.7 56.2 542.5C75 542.3 94 548.7 112.8 556.8C131.7 565 150.3 575 169 576.7C187.7 578.3 206.3 571.7 225 564.8C243.7 558 262.3 551 281.2 547.5C300 544 319 544 337.8 546.7C356.7 549.3 375.3 554.7 394 554.7C412.7 554.7 431.3 549.3 450 545C468.7 540.7 487.3 537.3 506.2 539.3C525 541.3 544 548.7 562.8 556.5C581.7 564.3 600.3 572.7 619 571.8C637.7 571 656.3 561 675 558C693.7 555 712.3 559 731.2 564.5C750 570 769 577 787.8 578.2C806.7 579.3 825.3 574.7 844 569C862.7 563.3 881.3 556.7 890.7 553.3L900 550L900 601L890.7 601C881.3 601 862.7 601 844 601C825.3 601 806.7 601 787.8 601C769 601 750 601 731.2 601C712.3 601 693.7 601 675 601C656.3 601 637.7 601 619 601C600.3 601 581.7 601 562.8 601C544 601 525 601 506.2 601C487.3 601 468.7 601 450 601C431.3 601 412.7 601 394 601C375.3 601 356.7 601 337.8 601C319 601 300 601 281.2 601C262.3 601 243.7 601 225 601C206.3 601 187.7 601 169 601C150.3 601 131.7 601 112.8 601C94 601 75 601 56.2 601C37.3 601 18.7 601 9.3 601L0 601Z" fill="#319b69"></path><path d="M0 584L9.3 585.3C18.7 586.7 37.3 589.3 56.2 586.5C75 583.7 94 575.3 112.8 574.8C131.7 574.3 150.3 581.7 169 583.8C187.7 586 206.3 583 225 583.3C243.7 583.7 262.3 587.3 281.2 587.8C300 588.3 319 585.7 337.8 582.5C356.7 579.3 375.3 575.7 394 573.8C412.7 572 431.3 572 450 572.2C468.7 572.3 487.3 572.7 506.2 571C525 569.3 544 565.7 562.8 568.3C581.7 571 600.3 580 619 581.8C637.7 583.7 656.3 578.3 675 577.3C693.7 576.3 712.3 579.7 731.2 580C750 580.3 769 577.7 787.8 576.8C806.7 576 825.3 577 844 577.3C862.7 577.7 881.3 577.3 890.7 577.2L900 577L900 601L890.7 601C881.3 601 862.7 601 844 601C825.3 601 806.7 601 787.8 601C769 601 750 601 731.2 601C712.3 601 693.7 601 675 601C656.3 601 637.7 601 619 601C600.3 601 581.7 601 562.8 601C544 601 525 601 506.2 601C487.3 601 468.7 601 450 601C431.3 601 412.7 601 394 601C375.3 601 356.7 601 337.8 601C319 601 300 601 281.2 601C262.3 601 243.7 601 225 601C206.3 601 187.7 601 169 601C150.3 601 131.7 601 112.8 601C94 601 75 601 56.2 601C37.3 601 18.7 601 9.3 601L0 601Z" fill="#009473"></path></svg>